<?xml version="1.0" encoding="UTF-8" standalone="no"?>
<!DOCTYPE svg PUBLIC "-//W3C//DTD SVG 1.1//EN" "http://www.w3.org/Graphics/SVG/1.1/DTD/svg11.dtd">
<svg width="100%" height="100%" viewBox="0 0 2608 1349" version="1.1" xmlns="http://www.w3.org/2000/svg" xmlns:xlink="http://www.w3.org/1999/xlink" xml:space="preserve" xmlns:serif="http://www.serif.com/" style="fill-rule:evenodd;clip-rule:evenodd;stroke-linejoin:round;stroke-miterlimit:1.41421;">
    <g transform="matrix(1,0,0,1,-5980.03,-3055.54)">
        <g id="Mesa-de-trabajo1" serif:id="Mesa de trabajo1" transform="matrix(0.315337,0,0,0.228403,5980.03,3055.54)">
            <rect x="0" y="0" width="8267.72" height="5905.51" style="fill:none;"/>
            <g transform="matrix(3.17121,0,0,4.37822,2336.68,2121.58)">
                <path d="M0,218.94C-14.967,238.74 -33.177,254.858 -54.678,267.277C-75.952,279.518 -103.882,285.604 -138.41,285.625C-183.069,285.625 -218.994,269.825 -246.168,238.224C-273.342,206.424 -286.933,161.645 -286.933,103.939C-286.933,53.591 -274.601,12.613 -249.955,-18.988C-225.314,-50.788 -189.19,-66.685 -141.562,-66.685C-101.343,-66.685 -69.535,-55.641 -46.14,-33.515C-22.753,-11.408 -9.589,19.463 -6.63,59.063C-5.383,74.025 -5.053,89.708 -5.694,106.148L-234.477,106.148C-234.477,143.834 -225.851,176.296 -208.558,203.457C-191.304,230.424 -167.703,243.918 -137.782,243.918C-116.083,243.918 -97.121,239.38 -80.901,230.32C-64.674,221.266 -49.72,207.794 -36.019,189.887L0,218.94ZM-142.209,-27.504C-171.909,-27.504 -194.327,-17.294 -209.501,3.127C-224.674,23.36 -232.791,46.327 -233.837,72.014L-56.564,72.014C-57.41,44.854 -64.151,21.454 -76.798,1.866C-89.424,-17.734 -111.242,-27.504 -142.209,-27.504" style="fill:rgb(79,117,139);"/>
            </g>
            <g transform="matrix(3.17121,0,0,4.37822,2568.2,3369.34)">
                <path d="M0,-500.193L49.92,-500.193L49.92,-74.886C49.92,-62.031 52.447,-53.295 57.522,-48.661C62.561,-44.021 71.407,-41.714 84.048,-41.714C85.728,-41.714 88.138,-41.812 91.312,-42.032C94.685,-42.23 98.045,-42.569 101.431,-42.989L108.703,-13.914C104.908,-12.22 100.681,-10.527 96.069,-8.86C91.408,-7.167 86.574,-5.694 81.521,-4.442C76.468,-2.968 71.407,-1.915 66.354,-1.275C61.3,-0.441 56.557,-0.021 52.124,0C35.697,0 22.843,-5.273 13.577,-15.8C4.516,-26.327 0,-42.032 0,-62.885L0,-500.193Z" style="fill:rgb(79,117,139);"/>
            </g>
            <g transform="matrix(3.17121,0,0,4.37822,3917.02,2121.58)">
                <path d="M0,218.94C-14.954,238.74 -33.184,254.858 -54.665,267.277C-75.959,279.518 -103.869,285.604 -138.417,285.625C-183.085,285.625 -218.982,269.825 -246.155,238.224C-273.329,206.424 -286.933,161.645 -286.933,103.939C-286.933,53.591 -274.596,12.613 -249.955,-18.988C-225.308,-50.788 -189.192,-66.685 -141.569,-66.685C-101.343,-66.685 -69.529,-55.641 -46.142,-33.515C-22.754,-11.408 -9.605,19.463 -6.644,59.063C-5.371,74.025 -5.068,89.708 -5.679,106.148L-234.472,106.148C-234.472,143.834 -225.845,176.296 -208.558,203.457C-191.291,230.424 -167.698,243.918 -137.776,243.918C-116.075,243.918 -97.136,239.38 -80.902,230.32C-64.689,221.266 -49.729,207.794 -36.028,189.887L0,218.94ZM-142.209,-27.504C-171.911,-27.504 -194.348,-17.294 -209.508,3.127C-224.675,23.36 -232.792,46.327 -233.846,72.014L-56.564,72.014C-57.426,44.854 -64.137,21.454 -76.792,1.866C-89.425,-17.734 -111.236,-27.504 -142.209,-27.504" style="fill:rgb(79,117,139);"/>
            </g>
            <g transform="matrix(3.17121,0,0,4.37822,4150.48,3369.34)">
                <path d="M0,-500.193L49.942,-500.193L49.942,-318.19C60.055,-326.823 73.742,-334.527 91.016,-341.254C108.51,-348.214 128.929,-351.677 152.316,-351.677C195.931,-351.677 229.321,-336.516 252.496,-306.189C275.883,-275.863 287.573,-234.149 287.573,-181.053C287.573,-125.233 273.989,-81.116 246.816,-48.661C219.641,-16.221 173.914,-0.021 109.666,0C94.699,0 76.695,-0.862 55.621,-2.527C34.547,-4.021 16.02,-5.694 0,-7.587L0,-500.193ZM49.942,-50.569C66.788,-41.915 90.058,-37.611 119.772,-37.611C160.013,-37.611 189.197,-51.305 207.304,-78.686C225.638,-106.272 234.795,-138.507 234.795,-175.36C234.795,-218.769 226.369,-251.822 209.535,-274.603C192.667,-297.55 169.494,-309.012 140,-309.033C122.299,-309.033 105.343,-306.404 89.129,-301.136C73.108,-295.862 60.055,-289.453 49.942,-281.866L49.942,-50.569Z" style="fill:rgb(79,117,139);"/>
            </g>
            <g transform="matrix(3.17121,0,0,4.37822,5287.95,3214.44)">
                <path d="M0,-406.527C0,-414.107 2.726,-421.075 8.22,-427.381C13.673,-433.709 20.943,-436.854 30.01,-436.854C38.856,-436.854 45.906,-433.709 51.18,-427.381C56.653,-421.075 59.38,-414.107 59.414,-406.527C59.414,-397.887 56.433,-390.624 50.547,-384.737C44.647,-379.044 37.81,-376.201 30.01,-376.201C21.996,-376.201 14.946,-379.044 8.846,-384.737C2.933,-390.624 0,-397.887 0,-406.527M5.046,-310.947L54.966,-310.947L54.966,30.327L5.046,30.327L5.046,-310.947Z" style="fill:rgb(79,117,139);"/>
            </g>
            <g transform="matrix(3.17121,0,0,4.37822,5751.91,3163.29)">
                <path d="M0,-256.916C7.794,-264.076 16.846,-270.61 27.175,-276.496C37.714,-282.41 48.764,-287.463 60.359,-291.664C72.152,-295.877 84.255,-299.043 96.695,-301.15C109.329,-303.464 121.88,-304.613 134.299,-304.613C169.26,-304.613 197.075,-295.877 217.728,-278.39C238.355,-260.916 248.681,-236.578 248.681,-205.412L248.681,-53.433C248.681,-40.998 249.102,-30.767 249.956,-22.769C250.795,-14.768 252.269,-8.44 254.375,-3.821C256.696,0.812 259.643,4.075 263.223,5.989C267.009,7.656 271.746,8.516 277.439,8.516C284.606,8.516 291.869,7.779 299.249,6.286L307.139,29.349C301.46,34.843 293.35,39.264 282.823,42.622C272.496,45.989 261.329,47.676 249.329,47.697C236.048,47.697 225.308,43.042 217.095,33.79C209.081,24.295 203.932,10.823 201.611,-6.651C183.69,9.99 164.111,23.263 142.837,33.15C121.763,42.844 99.126,47.676 74.886,47.697C61.632,47.697 49.184,45.789 37.611,42.01C26.238,38.01 16.316,32.317 7.904,24.93C-0.53,17.57 -7.174,8.516 -12.006,-2.231C-16.646,-12.978 -18.953,-25.198 -18.953,-38.885C-18.953,-57.219 -15.49,-73.116 -8.537,-86.61C-1.364,-100.084 8,-111.566 19.58,-121.033C31.187,-130.527 44.448,-138.211 59.415,-144.103C74.575,-150.011 90.168,-154.63 106.169,-158.011C122.389,-161.377 138.507,-163.601 154.527,-164.641C170.528,-165.914 185.28,-166.547 198.761,-166.547L198.761,-201.611C198.761,-223.938 192.965,-240.158 181.384,-250.265C169.79,-260.379 153.57,-265.432 132.723,-265.432C120.923,-265.432 109.852,-264.076 99.532,-261.336C89.425,-258.59 79.959,-255.127 71.105,-250.905C62.258,-246.685 54.128,-242.066 46.768,-236.992C39.402,-231.959 32.758,-227.105 26.857,-222.464L0,-256.916ZM198.761,-136.84C170.1,-136.22 145.459,-133.571 124.813,-128.957C104.165,-124.517 87.223,-118.411 73.942,-110.63C60.674,-102.809 50.878,-93.653 44.558,-83.126C38.237,-72.599 35.078,-60.999 35.078,-48.358C35.078,-30.471 40.138,-17.295 50.252,-8.882C60.359,-0.441 74.355,3.759 92.269,3.759C101.963,3.759 111.532,2.725 121.026,0.612C130.713,-1.495 140.09,-4.337 149.149,-7.924C158.21,-11.504 166.836,-15.726 175.051,-20.558C183.491,-25.611 191.381,-30.989 198.761,-36.682L198.761,-136.84Z" style="fill:rgb(79,117,139);"/>
            </g>
            <g transform="matrix(3.17121,0,0,4.37822,6927.3,3151.78)">
                <path d="M0,-8.043L19.497,-8.043C23.643,-8.043 26.886,-8.476 29.205,-9.316C31.533,-10.169 33.295,-11.561 34.507,-13.433C35.711,-15.327 36.324,-17.391 36.324,-19.602C36.324,-22.845 35.154,-25.516 32.806,-27.602C30.466,-29.695 26.754,-30.748 21.687,-30.748L0,-30.748L0,-8.043ZM-9.108,30.285L-9.108,-38.328L21.322,-38.328C27.409,-38.328 32.056,-37.709 35.243,-36.477C38.424,-35.244 40.95,-33.055 42.858,-29.95C44.764,-26.824 45.722,-23.381 45.722,-19.602C45.722,-14.747 44.145,-10.644 40.985,-7.306C37.853,-3.96 32.985,-1.853 26.41,-0.937C28.806,0.219 30.638,1.356 31.87,2.471C34.528,4.915 37.04,7.957 39.395,11.621L51.264,30.285L39.918,30.285L30.844,16.02C28.2,11.903 26.017,8.736 24.297,6.546C22.596,4.378 21.061,2.842 19.712,1.968C18.348,1.094 16.971,0.494 15.559,0.136C14.534,-0.063 12.868,-0.18 10.513,-0.18L0,-0.18L0,30.285L-9.108,30.285Z" style="fill:rgb(79,117,139);"/>
            </g>
            <g transform="matrix(3.17121,0,0,4.37822,6978.46,3349.72)">
                <path d="M0,-97.149C-26.781,-97.149 -48.573,-75.359 -48.573,-48.571C-48.573,-21.79 -26.781,-0.021 0,-0.021C26.781,-0.021 48.571,-21.79 48.571,-48.571C48.571,-75.359 26.781,-97.149 0,-97.149M0,8.958C-31.725,8.958 -57.521,-16.853 -57.521,-48.571C-57.521,-80.295 -31.725,-106.107 0,-106.107C31.718,-106.107 57.527,-80.295 57.527,-48.571C57.527,-16.853 31.718,8.958 0,8.958" style="fill:rgb(79,117,139);fill-rule:nonzero;"/>
            </g>
            <g transform="matrix(4.418,0,0,4.37822,-15194.9,-1532.95)">
                <g transform="matrix(0.717792,0,0,1,1018.24,0)">
                    <path d="M3915.4,1392.62C3918.72,1396.24 3922.14,1399.05 3925.65,1401.05C3929.17,1403.05 3933.59,1404.05 3938.91,1404.05C3944.28,1404.05 3948.7,1402.92 3952.17,1400.64C3955.63,1398.38 3957.37,1395.26 3957.37,1391.31C3957.37,1388.57 3956.49,1386.22 3954.73,1384.24C3952.97,1382.26 3949.43,1380.32 3944.11,1378.42C3942.11,1377.73 3938.18,1376.39 3932.32,1374.39C3926.8,1372.92 3921.62,1370.43 3916.79,1366.92C3911.96,1363.4 3909.54,1358.42 3909.54,1351.98C3909.54,1345.82 3912.15,1340.86 3917.38,1337.07C3922.6,1333.29 3929.36,1331.39 3937.66,1331.39C3940.59,1331.39 3943.32,1331.55 3945.83,1331.87C3948.35,1332.19 3950.71,1332.71 3952.93,1333.44C3955.16,1334.18 3957.26,1335.13 3959.23,1336.3C3961.21,1337.47 3963.13,1338.94 3964.98,1340.7L3958.32,1348.68C3955,1345.8 3951.76,1343.7 3948.61,1342.38C3945.46,1341.06 3941.86,1340.4 3937.81,1340.4C3932.83,1340.4 3928.72,1341.33 3925.47,1343.19C3922.22,1345.04 3920.6,1347.75 3920.6,1351.32C3920.6,1354.73 3922.11,1357.46 3925.14,1359.48C3928.17,1361.51 3931.76,1363.13 3935.91,1364.35C3938.1,1365.04 3940.28,1365.75 3942.43,1366.48C3944.57,1367.21 3946.75,1367.92 3948.94,1368.6C3955.88,1371.09 3960.86,1374.02 3963.89,1377.39C3966.91,1380.76 3968.43,1385.18 3968.43,1390.65C3968.43,1397.48 3965.62,1402.93 3960,1406.98C3954.39,1411.03 3947.45,1413.06 3939.2,1413.06C3932.76,1413.06 3927.06,1412.24 3922.1,1410.61C3917.14,1408.97 3912.35,1405.76 3907.71,1400.98L3915.4,1392.62Z" style="fill:rgb(79,117,139);fill-rule:nonzero;"/>
                </g>
                <g transform="matrix(0.717792,0,0,1,1018.24,0)">
                    <path d="M3997.21,1332.64C3997.65,1334.25 3997.94,1336.25 3998.09,1338.65C3999.55,1337.86 4001.2,1337.03 4003.03,1336.15C4004.86,1335.28 4006.83,1334.5 4008.93,1333.81C4011.03,1333.13 4013.22,1332.55 4015.52,1332.09C4017.82,1331.63 4020.14,1331.39 4022.48,1331.39C4026.48,1331.39 4030.01,1332.03 4033.06,1333.3C4036.11,1334.57 4038.76,1336.69 4041.01,1339.67C4050.77,1334.15 4060.05,1331.39 4068.84,1331.39C4072.55,1331.39 4075.79,1332.02 4078.55,1333.26C4081.3,1334.51 4083.58,1336.22 4085.36,1338.39C4087.14,1340.56 4088.47,1343.12 4089.35,1346.08C4090.23,1349.03 4090.67,1352.19 4090.67,1355.56L4090.67,1411.74L4079.1,1411.74L4079.1,1356.66C4079.1,1353.98 4078.74,1351.65 4078.03,1349.67C4077.33,1347.69 4076.34,1346.04 4075.07,1344.73C4073.8,1343.41 4072.31,1342.43 4070.6,1341.8C4068.89,1341.16 4067.06,1340.84 4065.11,1340.84C4058.03,1340.84 4051.12,1342.65 4044.38,1346.26C4045.01,1349.14 4045.33,1352.32 4045.33,1355.78L4045.33,1411.74L4033.76,1411.74L4033.76,1356.81C4033.76,1351.34 4032.55,1347.31 4030.13,1344.73C4027.72,1342.14 4024.21,1340.84 4019.62,1340.84C4015.91,1340.84 4012.25,1341.42 4008.64,1342.56C4005.02,1343.71 4001.65,1345.09 3998.53,1346.7L3998.53,1411.74L3986.96,1411.74L3986.96,1341.87C3986.91,1338.5 3986.71,1335.42 3986.37,1332.64L3997.21,1332.64Z" style="fill:rgb(79,117,139);fill-rule:nonzero;"/>
                </g>
                <g transform="matrix(0.717792,0,0,1,1018.24,0)">
                    <path d="M4159.07,1370.29C4152.43,1370.43 4146.72,1371.03 4141.94,1372.08C4137.15,1373.13 4133.22,1374.56 4130.14,1376.37C4127.07,1378.17 4124.8,1380.3 4123.33,1382.74C4121.87,1385.18 4121.14,1387.86 4121.14,1390.79C4121.14,1394.94 4122.31,1398 4124.65,1399.95C4126.99,1401.9 4130.24,1402.88 4134.39,1402.88C4136.64,1402.88 4138.87,1402.63 4141.09,1402.15C4143.32,1401.66 4145.48,1401 4147.58,1400.17C4149.68,1399.34 4151.69,1398.35 4153.62,1397.2C4155.55,1396.06 4157.37,1394.82 4159.07,1393.5L4159.07,1370.29ZM4113.01,1342.45C4114.81,1340.79 4116.92,1339.28 4119.34,1337.91C4121.76,1336.55 4124.32,1335.37 4127.03,1334.4C4129.74,1333.42 4132.55,1332.68 4135.45,1332.16C4138.36,1331.65 4141.25,1331.39 4144.13,1331.39C4152.24,1331.39 4158.68,1333.42 4163.47,1337.47C4168.26,1341.53 4170.65,1347.17 4170.65,1354.39L4170.65,1389.62C4170.65,1392.5 4170.74,1394.87 4170.94,1396.73C4171.14,1398.58 4171.49,1400.05 4172,1401.12C4172.52,1402.19 4173.2,1402.94 4174.05,1403.36C4174.91,1403.77 4175.99,1403.98 4177.31,1403.98C4178.97,1403.98 4180.66,1403.81 4182.37,1403.46L4184.2,1408.81C4182.88,1410.08 4181.01,1411.11 4178.59,1411.89C4176.18,1412.67 4173.58,1413.06 4170.79,1413.06C4167.72,1413.06 4165.24,1411.97 4163.36,1409.8C4161.48,1407.63 4160.27,1404.52 4159.73,1400.46C4155.58,1404.32 4151.06,1407.38 4146.15,1409.65C4141.24,1411.92 4135.98,1413.06 4130.36,1413.06C4127.29,1413.06 4124.42,1412.61 4121.76,1411.7C4119.1,1410.8 4116.79,1409.5 4114.84,1407.79C4112.88,1406.08 4111.36,1403.98 4110.26,1401.49C4109.16,1399 4108.61,1396.16 4108.61,1392.99C4108.61,1388.74 4109.43,1385.06 4111.07,1381.93C4112.7,1378.81 4114.86,1376.15 4117.55,1373.95C4120.23,1371.75 4123.32,1369.97 4126.81,1368.6C4130.3,1367.23 4133.92,1366.16 4137.65,1365.38C4141.39,1364.6 4145.11,1364.07 4148.82,1363.8C4152.53,1363.54 4155.95,1363.4 4159.07,1363.4L4159.07,1355.27C4159.07,1350.1 4157.73,1346.34 4155.05,1343.99C4152.36,1341.65 4148.6,1340.48 4143.77,1340.48C4141.03,1340.48 4138.48,1340.79 4136.11,1341.43C4133.74,1342.06 4131.54,1342.87 4129.48,1343.85C4127.43,1344.82 4125.56,1345.9 4123.85,1347.07C4122.14,1348.24 4120.6,1349.36 4119.23,1350.44L4113.01,1342.45Z" style="fill:rgb(79,117,139);fill-rule:nonzero;"/>
                </g>
                <g transform="matrix(0.717792,0,0,1,1018.24,0)">
                    <path d="M4208.88,1332.64C4209.22,1333.91 4209.48,1335.61 4209.65,1337.73C4209.82,1339.85 4209.9,1342.62 4209.9,1346.04C4213.66,1341.55 4218.07,1337.99 4223.12,1335.35C4228.18,1332.71 4233.44,1331.39 4238.91,1331.39C4239.54,1331.39 4240.22,1331.44 4240.92,1331.54C4241.63,1331.64 4242.16,1331.74 4242.5,1331.83L4240.01,1343.92C4238.54,1343.53 4236.69,1343.33 4234.44,1343.33C4227.95,1343.33 4222.55,1344.8 4218.26,1347.73C4213.96,1350.66 4211.2,1353.54 4209.98,1356.37L4209.98,1411.74L4198.41,1411.74L4198.41,1343.55C4198.31,1337.25 4198.16,1333.62 4197.97,1332.64L4208.88,1332.64Z" style="fill:rgb(79,117,139);fill-rule:nonzero;"/>
                </g>
                <g transform="matrix(0.717792,0,0,1,1018.24,0)">
                    <path d="M4244.33,1332.64L4255.76,1332.64L4255.76,1312.64L4267.33,1312.64L4267.33,1332.64L4286.59,1332.64L4285.35,1342.67L4267.33,1342.67L4267.33,1388.38C4267.33,1392.92 4268.07,1396.56 4269.56,1399.29C4271.05,1402.02 4273.38,1403.39 4276.56,1403.39C4278.27,1403.39 4280.41,1403.13 4283,1402.62C4285.59,1402.11 4287.3,1401.73 4288.13,1401.49L4289.01,1411.52C4288.03,1411.72 4285.97,1412.02 4282.82,1412.44C4279.67,1412.85 4277.19,1413.06 4275.38,1413.06C4269.18,1413.06 4264.36,1411.52 4260.92,1408.44C4257.48,1405.37 4255.76,1399.68 4255.76,1391.38L4255.76,1342.67L4244.33,1342.67L4244.33,1332.64Z" style="fill:rgb(79,117,139);fill-rule:nonzero;"/>
                </g>
                <g transform="matrix(0.717792,0,0,1,1018.24,0)">
                    <path d="M4357.19,1296.97L4368.77,1296.97L4368.77,1395.56C4368.77,1398.53 4369.35,1400.56 4370.53,1401.63C4371.7,1402.71 4373.75,1403.25 4376.68,1403.25C4377.07,1403.25 4377.64,1403.22 4378.4,1403.17C4379.16,1403.12 4379.93,1403.05 4380.71,1402.95L4382.39,1409.69C4381.51,1410.08 4380.53,1410.47 4379.46,1410.86C4378.39,1411.25 4377.26,1411.61 4376.09,1411.92C4374.92,1412.24 4373.75,1412.49 4372.58,1412.66C4371.4,1412.83 4370.31,1412.91 4369.28,1412.91C4365.47,1412.91 4362.51,1411.69 4360.38,1409.25C4358.26,1406.81 4357.19,1403.17 4357.19,1398.34L4357.19,1296.97Z" style="fill:rgb(79,117,139);fill-rule:nonzero;"/>
                </g>
                <g transform="matrix(0.717792,0,0,1,1018.24,0)">
                    <path d="M4395.65,1332.64L4407.22,1332.64L4407.22,1411.74L4395.65,1411.74L4395.65,1332.64ZM4394.48,1307.01C4394.48,1305.25 4395.11,1303.64 4396.38,1302.17C4397.65,1300.71 4399.33,1299.97 4401.43,1299.97C4403.48,1299.97 4405.13,1300.71 4406.38,1302.17C4407.62,1303.64 4408.24,1305.25 4408.24,1307.01C4408.24,1309.01 4407.56,1310.68 4406.19,1312.02C4404.83,1313.37 4403.24,1314.04 4401.43,1314.04C4399.58,1314.04 4397.95,1313.37 4396.56,1312.02C4395.17,1310.68 4394.48,1309.01 4394.48,1307.01Z" style="fill:rgb(79,117,139);fill-rule:nonzero;"/>
                </g>
                <g transform="matrix(0.717792,0,0,1,1018.24,0)">
                    <path d="M4433.29,1332.64L4433.29,1326.49C4433.29,1316.38 4435.7,1308.76 4440.51,1303.64C4445.32,1298.51 4451.87,1295.94 4460.17,1295.94C4463.2,1295.94 4466.15,1296.31 4469.04,1297.04C4471.92,1297.78 4474.04,1298.61 4475.41,1299.53L4470.43,1309.5C4469.69,1308.96 4468.19,1308.16 4465.92,1307.12C4463.65,1306.07 4461.47,1305.54 4459.37,1305.54C4453.85,1305.54 4449.97,1307.01 4447.72,1309.93C4446.45,1311.5 4445.66,1314.11 4445.34,1317.77C4445.03,1321.43 4444.87,1326.39 4444.87,1332.64L4463.47,1332.64L4462.37,1342.38L4444.87,1342.38L4444.87,1411.74L4433.29,1411.74L4433.29,1342.38L4422.6,1342.38L4422.6,1332.64L4433.29,1332.64Z" style="fill:rgb(79,117,139);fill-rule:nonzero;"/>
                </g>
                <g transform="matrix(0.717792,0,0,1,1018.24,0)">
                    <path d="M4467.79,1332.64L4479.22,1332.64L4479.22,1312.64L4490.79,1312.64L4490.79,1332.64L4510.05,1332.64L4508.81,1342.67L4490.79,1342.67L4490.79,1388.38C4490.79,1392.92 4491.53,1396.56 4493.02,1399.29C4494.51,1402.02 4496.84,1403.39 4500.02,1403.39C4501.73,1403.39 4503.88,1403.13 4506.46,1402.62C4509.05,1402.11 4510.76,1401.73 4511.59,1401.49L4512.47,1411.52C4511.49,1411.72 4509.43,1412.02 4506.28,1412.44C4503.13,1412.85 4500.65,1413.06 4498.85,1413.06C4492.64,1413.06 4487.82,1411.52 4484.38,1408.44C4480.94,1405.37 4479.22,1399.68 4479.22,1391.38L4479.22,1342.67L4467.79,1342.67L4467.79,1332.64Z" style="fill:rgb(79,117,139);fill-rule:nonzero;"/>
                </g>
                <g transform="matrix(0.717792,0,0,1,1018.24,0)">
                    <path d="M4529.17,1332.64L4540.74,1332.64L4540.74,1411.74L4529.17,1411.74L4529.17,1332.64ZM4528,1307.01C4528,1305.25 4528.63,1303.64 4529.9,1302.17C4531.17,1300.71 4532.85,1299.97 4534.95,1299.97C4537.01,1299.97 4538.65,1300.71 4539.9,1302.17C4541.14,1303.64 4541.77,1305.25 4541.77,1307.01C4541.77,1309.01 4541.08,1310.68 4539.72,1312.02C4538.35,1313.37 4536.76,1314.04 4534.95,1314.04C4533.1,1314.04 4531.48,1313.37 4530.08,1312.02C4528.69,1310.68 4528,1309.01 4528,1307.01Z" style="fill:rgb(79,117,139);fill-rule:nonzero;"/>
                </g>
                <g transform="matrix(0.717792,0,0,1,1018.24,0)">
                    <path d="M4564.69,1342.82C4564.69,1339.65 4564.47,1336.25 4564.03,1332.64L4575.24,1332.64C4575.68,1334.79 4575.97,1337.13 4576.12,1339.67C4579.48,1337.47 4583.6,1335.55 4588.46,1333.88C4593.32,1332.23 4598.16,1331.39 4603,1331.39C4610.47,1331.39 4616.39,1333.57 4620.76,1337.91C4625.13,1342.26 4627.31,1348.44 4627.31,1356.44L4627.31,1411.74L4615.74,1411.74L4615.74,1357.4C4615.74,1352.66 4614.49,1348.72 4612.01,1345.57C4609.52,1342.42 4606,1340.84 4601.46,1340.84C4596.92,1340.84 4592.43,1341.53 4587.98,1342.89C4583.54,1344.26 4579.63,1346.02 4576.26,1348.17L4576.26,1411.74L4564.69,1411.74L4564.69,1342.82Z" style="fill:rgb(79,117,139);fill-rule:nonzero;"/>
                </g>
                <g transform="matrix(0.717792,0,0,1,1018.24,0)">
                    <path d="M4680.27,1378.56C4683.29,1378.56 4685.87,1378.06 4687.99,1377.06C4690.12,1376.06 4691.86,1374.63 4693.23,1372.78C4694.6,1370.92 4695.59,1368.7 4696.2,1366.11C4696.81,1363.52 4697.11,1360.64 4697.11,1357.47C4697.11,1355.08 4696.77,1352.77 4696.09,1350.55C4695.4,1348.33 4694.37,1346.38 4692.97,1344.73C4691.58,1343.06 4689.81,1341.73 4687.66,1340.73C4685.52,1339.73 4682.98,1339.23 4680.05,1339.23C4676.48,1339.23 4673.53,1339.81 4671.18,1340.95C4668.84,1342.1 4666.96,1343.6 4665.55,1345.46C4664.13,1347.31 4663.13,1349.41 4662.54,1351.76C4661.96,1354.1 4661.66,1356.47 4661.66,1358.86C4661.66,1361.3 4662.04,1363.69 4662.8,1366.04C4663.56,1368.38 4664.7,1370.48 4666.24,1372.34C4667.78,1374.19 4669.71,1375.69 4672.03,1376.84C4674.35,1377.99 4677.09,1378.56 4680.27,1378.56ZM4663.2,1408.52C4661,1410.91 4659.31,1413.3 4658.11,1415.7C4656.91,1418.09 4656.32,1420.41 4656.32,1422.65C4656.32,1425.63 4656.95,1428.09 4658.22,1430.02C4659.49,1431.94 4661.13,1433.47 4663.13,1434.59C4665.13,1435.72 4667.38,1436.5 4669.87,1436.94C4672.36,1437.38 4674.85,1437.6 4677.34,1437.6C4678.7,1437.6 4680.35,1437.51 4682.28,1437.34C4684.21,1437.17 4686.21,1436.89 4688.29,1436.5C4690.36,1436.11 4692.41,1435.58 4694.44,1434.92C4696.47,1434.26 4698.28,1433.44 4699.9,1432.47C4701.51,1431.49 4702.81,1430.33 4703.81,1428.99C4704.82,1427.65 4705.32,1426.1 4705.32,1424.34C4705.32,1422.63 4704.79,1421.1 4703.74,1419.76C4702.69,1418.42 4701.3,1417.23 4699.57,1416.21C4697.83,1415.18 4695.78,1414.26 4693.41,1413.43C4691.05,1412.6 4687.01,1411.64 4681.29,1410.57C4677.48,1409.98 4674.52,1409.58 4672.39,1409.36C4670.27,1409.14 4668.4,1408.97 4666.79,1408.85C4665.18,1408.73 4663.98,1408.62 4663.2,1408.52ZM4715.13,1342.23C4713.18,1342.19 4711.37,1342.28 4709.71,1342.53C4708.05,1342.77 4706.41,1343.14 4704.8,1343.63C4706.02,1345.48 4707.06,1347.59 4707.91,1349.96C4708.77,1352.33 4709.2,1355.1 4709.2,1358.27C4709.2,1363.06 4708.37,1367.2 4706.71,1370.69C4705.05,1374.18 4702.82,1377.06 4700.04,1379.33C4697.26,1381.6 4694.06,1383.29 4690.45,1384.38C4686.83,1385.48 4683.07,1386.03 4679.17,1386.03C4675.85,1386.03 4672.4,1385.62 4668.84,1384.79C4668.06,1384.89 4667.06,1385.15 4665.84,1385.59C4664.62,1386.03 4663.43,1386.62 4662.29,1387.35C4661.14,1388.08 4660.15,1388.93 4659.32,1389.88C4658.49,1390.83 4658.07,1391.87 4658.07,1392.99C4658.07,1394.26 4658.93,1395.26 4660.64,1395.99C4662.35,1396.73 4664.59,1397.35 4667.38,1397.86C4670.16,1398.38 4675.09,1399.12 4682.17,1400.1C4689.64,1401.32 4695.15,1402.43 4698.69,1403.43C4702.23,1404.43 4705.39,1405.76 4708.17,1407.42C4710.95,1409.08 4713.2,1411.12 4714.91,1413.54C4716.62,1415.95 4717.47,1418.92 4717.47,1422.43C4717.47,1425.8 4716.84,1428.71 4715.57,1431.15C4714.3,1433.59 4712.6,1435.68 4710.48,1437.41C4708.36,1439.15 4705.9,1440.56 4703.12,1441.66C4700.34,1442.76 4697.4,1443.63 4694.33,1444.26C4691.25,1444.9 4688.14,1445.32 4684.99,1445.54C4681.84,1445.76 4678.85,1445.87 4676.02,1445.87C4671.53,1445.87 4667.41,1445.48 4663.68,1444.7C4659.94,1443.92 4656.73,1442.71 4654.05,1441.08C4651.36,1439.44 4649.26,1437.36 4647.75,1434.85C4646.23,1432.33 4645.48,1429.34 4645.48,1425.88C4645.48,1424.02 4645.81,1422.18 4646.47,1420.35C4647.12,1418.52 4648.03,1416.77 4649.18,1415.11C4650.32,1413.45 4651.64,1411.91 4653.13,1410.5C4654.62,1409.08 4656.19,1407.81 4657.85,1406.69C4656.54,1406.05 4655.24,1405.38 4653.97,1404.67C4652.7,1403.96 4651.57,1403.16 4650.57,1402.26C4649.57,1401.35 4648.75,1400.3 4648.11,1399.11C4647.48,1397.91 4647.16,1396.51 4647.16,1394.9C4647.16,1393.14 4647.69,1391.53 4648.74,1390.06C4649.79,1388.6 4651.08,1387.28 4652.62,1386.11C4654.16,1384.93 4655.78,1383.96 4657.49,1383.18C4659.2,1382.4 4660.71,1381.83 4662.03,1381.49C4657.93,1379.15 4654.83,1376.16 4652.73,1372.52C4650.63,1368.88 4649.58,1364.33 4649.58,1358.86C4649.58,1354.42 4650.47,1350.47 4652.25,1347.03C4654.03,1343.59 4656.36,1340.72 4659.25,1338.43C4662.13,1336.13 4665.42,1334.38 4669.13,1333.19C4672.85,1331.99 4676.63,1331.39 4680.49,1331.39C4683.86,1331.39 4687.22,1331.86 4690.59,1332.79C4693.96,1333.71 4697.11,1335.11 4700.04,1336.96C4703.85,1335.5 4707.55,1334.47 4711.14,1333.88C4714.73,1333.3 4718.13,1333.01 4721.36,1333.01L4720.04,1342.38L4715.13,1342.23Z" style="fill:rgb(79,117,139);fill-rule:nonzero;"/>
                </g>
                <g transform="matrix(0.717792,0,0,1,1018.24,0)">
                    <path d="M4786.98,1392.62C4790.3,1396.24 4793.72,1399.05 4797.23,1401.05C4800.75,1403.05 4805.17,1404.05 4810.49,1404.05C4815.86,1404.05 4820.28,1402.92 4823.75,1400.64C4827.22,1398.38 4828.95,1395.26 4828.95,1391.31C4828.95,1388.57 4828.07,1386.22 4826.31,1384.24C4824.55,1382.26 4821.01,1380.32 4815.69,1378.42C4813.69,1377.73 4809.76,1376.39 4803.9,1374.39C4798.38,1372.92 4793.21,1370.43 4788.37,1366.92C4783.54,1363.4 4781.12,1358.42 4781.12,1351.98C4781.12,1345.82 4783.73,1340.86 4788.96,1337.07C4794.18,1333.29 4800.94,1331.39 4809.25,1331.39C4812.18,1331.39 4814.9,1331.55 4817.41,1331.87C4819.93,1332.19 4822.3,1332.71 4824.52,1333.44C4826.74,1334.18 4828.84,1335.13 4830.82,1336.3C4832.79,1337.47 4834.71,1338.94 4836.57,1340.7L4829.9,1348.68C4826.58,1345.8 4823.35,1343.7 4820.2,1342.38C4817.05,1341.06 4813.44,1340.4 4809.39,1340.4C4804.41,1340.4 4800.3,1341.33 4797.05,1343.19C4793.8,1345.04 4792.18,1347.75 4792.18,1351.32C4792.18,1354.73 4793.69,1357.46 4796.72,1359.48C4799.75,1361.51 4803.34,1363.13 4807.49,1364.35C4809.69,1365.04 4811.86,1365.75 4814.01,1366.48C4816.15,1367.21 4818.33,1367.92 4820.53,1368.6C4827.46,1371.09 4832.44,1374.02 4835.47,1377.39C4838.49,1380.76 4840.01,1385.18 4840.01,1390.65C4840.01,1397.48 4837.2,1402.93 4831.59,1406.98C4825.97,1411.03 4819.04,1413.06 4810.78,1413.06C4804.34,1413.06 4798.64,1412.24 4793.68,1410.61C4788.73,1408.97 4783.93,1405.76 4779.29,1400.98L4786.98,1392.62Z" style="fill:rgb(79,117,139);fill-rule:nonzero;"/>
                </g>
                <g transform="matrix(0.717792,0,0,1,1018.24,0)">
                    <path d="M4892.74,1403.76C4896.8,1403.76 4900.34,1402.81 4903.36,1400.9C4906.39,1399 4909.4,1395.56 4912.41,1390.57C4915.41,1385.59 4916.91,1378.83 4916.91,1370.29C4916.91,1362.82 4914.85,1356.02 4910.72,1349.89C4906.6,1343.76 4900.56,1340.7 4892.6,1340.7C4884.64,1340.7 4878.5,1343.63 4874.18,1349.49C4869.85,1355.35 4867.69,1363.01 4867.69,1372.48C4867.69,1380.59 4869.24,1386.89 4872.34,1391.38C4875.44,1395.87 4878.57,1399.06 4881.72,1400.94C4884.87,1402.82 4888.54,1403.76 4892.74,1403.76ZM4893.26,1413.06C4880.85,1413.06 4871.48,1409.23 4865.13,1401.56C4858.78,1393.89 4855.61,1383.74 4855.61,1371.09C4855.61,1359.76 4859,1350.32 4865.79,1342.75C4872.58,1335.18 4881.61,1331.39 4892.89,1331.39C4904.41,1331.39 4913.31,1335.33 4919.59,1343.19C4925.86,1351.05 4929,1360.84 4929,1372.56C4929,1383.69 4925.7,1393.22 4919.11,1401.16C4912.52,1409.09 4903.9,1413.06 4893.26,1413.06Z" style="fill:rgb(79,117,139);fill-rule:nonzero;"/>
                </g>
                <g transform="matrix(0.717792,0,0,1,1018.24,0)">
                    <path d="M4948.77,1296.97L4960.35,1296.97L4960.35,1395.56C4960.35,1398.53 4960.93,1400.56 4962.1,1401.63C4963.27,1402.71 4965.32,1403.25 4968.26,1403.25C4968.65,1403.25 4969.22,1403.22 4969.98,1403.17C4970.73,1403.12 4971.5,1403.05 4972.28,1402.95L4973.97,1409.69C4973.09,1410.08 4972.11,1410.47 4971.04,1410.86C4969.96,1411.25 4968.84,1411.61 4967.67,1411.92C4966.5,1412.24 4965.32,1412.49 4964.15,1412.66C4962.98,1412.83 4961.88,1412.91 4960.86,1412.91C4957.05,1412.91 4954.08,1411.69 4951.96,1409.25C4949.83,1406.81 4948.77,1403.17 4948.77,1398.34L4948.77,1296.97Z" style="fill:rgb(79,117,139);fill-rule:nonzero;"/>
                </g>
                <g transform="matrix(0.717792,0,0,1,1018.24,0)">
                    <path d="M4996.38,1332.64L4996.38,1386.33C4996.38,1391.65 4997.71,1395.7 5000.37,1398.48C5003.03,1401.27 5006.51,1402.66 5010.81,1402.66C5016.38,1402.66 5021.28,1401.89 5025.53,1400.35C5029.78,1398.81 5033.17,1396.8 5035.71,1394.31L5035.71,1332.64L5047.28,1332.64L5047.28,1401.41C5047.28,1404.59 5047.62,1408.03 5048.31,1411.74L5036.52,1411.74C5036.13,1408.96 5035.83,1406.22 5035.64,1403.54C5033,1405.54 5029.8,1407.35 5026.04,1408.96C5022.28,1410.57 5019.11,1411.66 5016.52,1412.22C5013.93,1412.78 5011.54,1413.06 5009.34,1413.06C5000.85,1413.06 4994.63,1410.73 4990.7,1406.07C4986.77,1401.4 4984.81,1395.31 4984.81,1387.79L4984.81,1332.64L4996.38,1332.64Z" style="fill:rgb(79,117,139);fill-rule:nonzero;"/>
                </g>
                <g transform="matrix(0.717792,0,0,1,1018.24,0)">
                    <path d="M5062.37,1332.64L5073.8,1332.64L5073.8,1312.64L5085.37,1312.64L5085.37,1332.64L5104.63,1332.64L5103.39,1342.67L5085.37,1342.67L5085.37,1388.38C5085.37,1392.92 5086.11,1396.56 5087.6,1399.29C5089.09,1402.02 5091.42,1403.39 5094.6,1403.39C5096.31,1403.39 5098.45,1403.13 5101.04,1402.62C5103.63,1402.11 5105.34,1401.73 5106.17,1401.49L5107.05,1411.52C5106.07,1411.72 5104.01,1412.02 5100.86,1412.44C5097.71,1412.85 5095.23,1413.06 5093.43,1413.06C5087.22,1413.06 5082.4,1411.52 5078.96,1408.44C5075.52,1405.37 5073.8,1399.68 5073.8,1391.38L5073.8,1342.67L5062.37,1342.67L5062.37,1332.64Z" style="fill:rgb(79,117,139);fill-rule:nonzero;"/>
                </g>
                <g transform="matrix(0.717792,0,0,1,1018.24,0)">
                    <path d="M5123.75,1332.64L5135.32,1332.64L5135.32,1411.74L5123.75,1411.74L5123.75,1332.64ZM5122.58,1307.01C5122.58,1305.25 5123.21,1303.64 5124.48,1302.17C5125.75,1300.71 5127.43,1299.97 5129.53,1299.97C5131.59,1299.97 5133.23,1300.71 5134.48,1302.17C5135.72,1303.64 5136.35,1305.25 5136.35,1307.01C5136.35,1309.01 5135.66,1310.68 5134.3,1312.02C5132.93,1313.37 5131.34,1314.04 5129.53,1314.04C5127.68,1314.04 5126.06,1313.37 5124.66,1312.02C5123.27,1310.68 5122.58,1309.01 5122.58,1307.01Z" style="fill:rgb(79,117,139);fill-rule:nonzero;"/>
                </g>
                <g transform="matrix(0.717792,0,0,1,1018.24,0)">
                    <path d="M5193.4,1403.76C5197.45,1403.76 5200.99,1402.81 5204.02,1400.9C5207.05,1399 5210.06,1395.56 5213.07,1390.57C5216.07,1385.59 5217.57,1378.83 5217.57,1370.29C5217.57,1362.82 5215.51,1356.02 5211.38,1349.89C5207.26,1343.76 5201.21,1340.7 5193.26,1340.7C5185.3,1340.7 5179.16,1343.63 5174.83,1349.49C5170.51,1355.35 5168.35,1363.01 5168.35,1372.48C5168.35,1380.59 5169.9,1386.89 5173,1391.38C5176.1,1395.87 5179.23,1399.06 5182.38,1400.94C5185.53,1402.82 5189.2,1403.76 5193.4,1403.76ZM5193.91,1413.06C5181.51,1413.06 5172.14,1409.23 5165.79,1401.56C5159.44,1393.89 5156.27,1383.74 5156.27,1371.09C5156.27,1359.76 5159.66,1350.32 5166.45,1342.75C5173.23,1335.18 5182.27,1331.39 5193.55,1331.39C5205.07,1331.39 5213.97,1335.33 5220.24,1343.19C5226.52,1351.05 5229.66,1360.84 5229.66,1372.56C5229.66,1383.69 5226.36,1393.22 5219.77,1401.16C5213.18,1409.09 5204.56,1413.06 5193.91,1413.06Z" style="fill:rgb(79,117,139);fill-rule:nonzero;"/>
                </g>
                <g transform="matrix(0.717792,0,0,1,1018.24,0)">
                    <path d="M5250.24,1342.82C5250.24,1339.65 5250.02,1336.25 5249.58,1332.64L5260.78,1332.64C5261.22,1334.79 5261.52,1337.13 5261.66,1339.67C5265.03,1337.47 5269.15,1335.55 5274,1333.88C5278.86,1332.23 5283.71,1331.39 5288.54,1331.39C5296.01,1331.39 5301.93,1333.57 5306.3,1337.91C5310.67,1342.26 5312.86,1348.44 5312.86,1356.44L5312.86,1411.74L5301.29,1411.74L5301.29,1357.4C5301.29,1352.66 5300.04,1348.72 5297.55,1345.57C5295.06,1342.42 5291.55,1340.84 5287.01,1340.84C5282.46,1340.84 5277.97,1341.53 5273.53,1342.89C5269.09,1344.26 5265.18,1346.02 5261.81,1348.17L5261.81,1411.74L5250.24,1411.74L5250.24,1342.82Z" style="fill:rgb(79,117,139);fill-rule:nonzero;"/>
                </g>
                <g transform="matrix(0.717792,0,0,1,1018.24,0)">
                    <path d="M5336.81,1392.62C5340.13,1396.24 5343.55,1399.05 5347.06,1401.05C5350.58,1403.05 5355,1404.05 5360.32,1404.05C5365.69,1404.05 5370.11,1402.92 5373.58,1400.64C5377.04,1398.38 5378.78,1395.26 5378.78,1391.31C5378.78,1388.57 5377.9,1386.22 5376.14,1384.24C5374.38,1382.26 5370.84,1380.32 5365.52,1378.42C5363.52,1377.73 5359.59,1376.39 5353.73,1374.39C5348.21,1372.92 5343.03,1370.43 5338.2,1366.92C5333.37,1363.4 5330.95,1358.42 5330.95,1351.98C5330.95,1345.82 5333.56,1340.86 5338.79,1337.07C5344.01,1333.29 5350.77,1331.39 5359.07,1331.39C5362.01,1331.39 5364.73,1331.55 5367.24,1331.87C5369.76,1332.19 5372.12,1332.71 5374.35,1333.44C5376.57,1334.18 5378.67,1335.13 5380.65,1336.3C5382.62,1337.47 5384.54,1338.94 5386.39,1340.7L5379.73,1348.68C5376.41,1345.8 5373.17,1343.7 5370.03,1342.38C5366.88,1341.06 5363.27,1340.4 5359.22,1340.4C5354.24,1340.4 5350.13,1341.33 5346.88,1343.19C5343.63,1345.04 5342.01,1347.75 5342.01,1351.32C5342.01,1354.73 5343.52,1357.46 5346.55,1359.48C5349.58,1361.51 5353.17,1363.13 5357.32,1364.35C5359.52,1365.04 5361.69,1365.75 5363.84,1366.48C5365.98,1367.21 5368.16,1367.92 5370.35,1368.6C5377.29,1371.09 5382.27,1374.02 5385.3,1377.39C5388.32,1380.76 5389.84,1385.18 5389.84,1390.65C5389.84,1397.48 5387.03,1402.93 5381.41,1406.98C5375.8,1411.03 5368.86,1413.06 5360.61,1413.06C5354.17,1413.06 5348.47,1412.24 5343.51,1410.61C5338.56,1408.97 5333.76,1405.76 5329.12,1400.98L5336.81,1392.62Z" style="fill:rgb(79,117,139);fill-rule:nonzero;"/>
                </g>
            </g>
        </g>
    </g>
</svg>
